<svg xmlns="http://www.w3.org/2000/svg" width="816" height="440" viewBox="0 0 816 440" role="img">
  <defs>
    <filter id="win-shadow" x="-20%" y="-20%" width="140%" height="140%">
      <feDropShadow dx="0" dy="14" stdDeviation="18" flood-color="#000000" flood-opacity="0.45"/>
    </filter>
    <linearGradient id="hero-bg" x1="0" y1="0" x2="1" y2="1">
      <stop offset="0" stop-color="#8B45FF"/>
      <stop offset="0.55" stop-color="#6236FF"/>
      <stop offset="1" stop-color="#2F6BFF"/>
    </linearGradient>
    <radialGradient id="hero-glow" cx="0.5" cy="0.32" r="0.72">
      <stop offset="0" stop-color="#ffffff" stop-opacity="0.22"/>
      <stop offset="1" stop-color="#ffffff" stop-opacity="0"/>
    </radialGradient>
  </defs>
<g filter="url(#win-shadow)"><rect x="28" y="28" width="760" height="384" rx="10" ry="10" fill="#1b1b1b" stroke="#303030" stroke-width="1"/></g>
<g transform="translate(46 50)" fill="none" stroke="#7d7d7d" stroke-width="1.8" stroke-linecap="round"><circle cx="7.5" cy="7.5" r="5.8"/><line x1="11.8" y1="11.8" x2="16" y2="16"/></g><text x="72" y="64" font-family="-apple-system, BlinkMacSystemFont, 'Segoe UI', Roboto, Inter, 'Helvetica Neue', Arial, sans-serif" font-size="17" font-weight="400" fill="#f2f2f2">writing</text><rect x="138.85500000000002" y="48" width="1.6" height="20" fill="#007aff" opacity="0.9"/><line x1="29" y1="88" x2="787" y2="88" stroke="#303030" stroke-width="1"/>
<text x="44" y="114" font-family="-apple-system, BlinkMacSystemFont, 'Segoe UI', Roboto, Inter, 'Helvetica Neue', Arial, sans-serif" font-size="13" font-weight="400" fill="#a5a5a5">Results</text><rect x="36" y="124" width="744" height="48" rx="6" ry="6" fill="#323232"/><g transform="translate(46 139) scale(0.7500)" fill="none" stroke="#a5a5a5" stroke-width="1.5" stroke-linecap="round" stroke-linejoin="round"><path d="M11 4l1.3 3.7L16 9l-3.7 1.3L11 14l-1.3-3.7L6 9l3.7-1.3L11 4z" /> <path d="M18.5 14l.8 2.2 2.2.8-2.2.8-.8 2.2-.8-2.2-2.2-.8 2.2-.8.8-2.2z" /></g><rect x="752" y="138" width="20" height="20" rx="5" ry="5" fill="#323232" stroke="#3d3d3d" stroke-width="1"/><text x="762" y="152.025" font-family="-apple-system, BlinkMacSystemFont, 'Segoe UI', Roboto, Inter, 'Helvetica Neue', Arial, sans-serif" font-size="11.5" font-weight="600" fill="#a5a5a5" text-anchor="middle">↵</text><text x="78" y="152.5" font-family="-apple-system, BlinkMacSystemFont, 'Segoe UI', Roboto, Inter, 'Helvetica Neue', Arial, sans-serif" font-size="14" font-weight="450" fill="#f2f2f2">Improve Writing</text><text x="202.45" y="152.5" font-family="-apple-system, BlinkMacSystemFont, 'Segoe UI', Roboto, Inter, 'Helvetica Neue', Arial, sans-serif" font-size="13" font-weight="400" fill="#a5a5a5">Built-in AI Command</text><g transform="translate(46 187) scale(0.7500)" fill="none" stroke="#a5a5a5" stroke-width="1.5" stroke-linecap="round" stroke-linejoin="round"><path d="M11 4l1.3 3.7L16 9l-3.7 1.3L11 14l-1.3-3.7L6 9l3.7-1.3L11 4z" /> <path d="M18.5 14l.8 2.2 2.2.8-2.2.8-.8 2.2-.8-2.2-2.2-.8 2.2-.8.8-2.2z" /></g><text x="78" y="200.5" font-family="-apple-system, BlinkMacSystemFont, 'Segoe UI', Roboto, Inter, 'Helvetica Neue', Arial, sans-serif" font-size="14" font-weight="450" fill="#f2f2f2">Fix Spelling and Grammar</text><text x="271.12" y="200.5" font-family="-apple-system, BlinkMacSystemFont, 'Segoe UI', Roboto, Inter, 'Helvetica Neue', Arial, sans-serif" font-size="13" font-weight="400" fill="#a5a5a5">Built-in AI Command</text><g transform="translate(46 235) scale(0.7500)" fill="none" stroke="#a5a5a5" stroke-width="1.5" stroke-linecap="round" stroke-linejoin="round"><path d="M11 4l1.3 3.7L16 9l-3.7 1.3L11 14l-1.3-3.7L6 9l3.7-1.3L11 4z" /> <path d="M18.5 14l.8 2.2 2.2.8-2.2.8-.8 2.2-.8-2.2-2.2-.8 2.2-.8.8-2.2z" /></g><text x="78" y="248.5" font-family="-apple-system, BlinkMacSystemFont, 'Segoe UI', Roboto, Inter, 'Helvetica Neue', Arial, sans-serif" font-size="14" font-weight="450" fill="#f2f2f2">Change Tone to Professional</text><text x="294.01" y="248.5" font-family="-apple-system, BlinkMacSystemFont, 'Segoe UI', Roboto, Inter, 'Helvetica Neue', Arial, sans-serif" font-size="13" font-weight="400" fill="#a5a5a5">Built-in AI Command</text><g transform="translate(46 283) scale(0.7500)" fill="none" stroke="#a5a5a5" stroke-width="1.5" stroke-linecap="round" stroke-linejoin="round"><path d="M11 4l1.3 3.7L16 9l-3.7 1.3L11 14l-1.3-3.7L6 9l3.7-1.3L11 4z" /> <path d="M18.5 14l.8 2.2 2.2.8-2.2.8-.8 2.2-.8-2.2-2.2-.8 2.2-.8.8-2.2z" /></g><text x="78" y="296.5" font-family="-apple-system, BlinkMacSystemFont, 'Segoe UI', Roboto, Inter, 'Helvetica Neue', Arial, sans-serif" font-size="14" font-weight="450" fill="#f2f2f2">Release Notes Writer</text><text x="240.60000000000002" y="296.5" font-family="-apple-system, BlinkMacSystemFont, 'Segoe UI', Roboto, Inter, 'Helvetica Neue', Arial, sans-serif" font-size="13" font-weight="400" fill="#a5a5a5">AI Command</text><g transform="translate(46 331) scale(0.7500)" fill="none" stroke="#a5a5a5" stroke-width="1.5" stroke-linecap="round" stroke-linejoin="round"><path d="M11 4l1.3 3.7L16 9l-3.7 1.3L11 14l-1.3-3.7L6 9l3.7-1.3L11 4z" /> <path d="M18.5 14l.8 2.2 2.2.8-2.2.8-.8 2.2-.8-2.2-2.2-.8 2.2-.8.8-2.2z" /></g><text x="78" y="344.5" font-family="-apple-system, BlinkMacSystemFont, 'Segoe UI', Roboto, Inter, 'Helvetica Neue', Arial, sans-serif" font-size="14" font-weight="450" fill="#f2f2f2">New Chat with Editor</text><text x="240.60000000000002" y="344.5" font-family="-apple-system, BlinkMacSystemFont, 'Segoe UI', Roboto, Inter, 'Helvetica Neue', Arial, sans-serif" font-size="13" font-weight="400" fill="#a5a5a5">Agent</text>
<path d="M29 372 h758 v30 a10 10 0 0 1 -10 10 h-738 a10 10 0 0 1 -10 -10 z" fill="#222222"/><line x1="29" y1="372" x2="787" y2="372" stroke="#303030" stroke-width="1"/><g transform="translate(40 383) scale(0.7500)" fill="none" stroke="#a5a5a5" stroke-width="1.5" stroke-linecap="round" stroke-linejoin="round"><path d="M11 4l1.3 3.7L16 9l-3.7 1.3L11 14l-1.3-3.7L6 9l3.7-1.3L11 4z" /> <path d="M18.5 14l.8 2.2 2.2.8-2.2.8-.8 2.2-.8-2.2-2.2-.8 2.2-.8.8-2.2z" /></g><text x="68" y="396.5" font-family="-apple-system, BlinkMacSystemFont, 'Segoe UI', Roboto, Inter, 'Helvetica Neue', Arial, sans-serif" font-size="13" font-weight="500" fill="#a5a5a5">Improve Writing</text><rect x="754" y="382" width="20" height="20" rx="5" ry="5" fill="#323232" stroke="#3d3d3d" stroke-width="1"/><text x="764" y="396.025" font-family="-apple-system, BlinkMacSystemFont, 'Segoe UI', Roboto, Inter, 'Helvetica Neue', Arial, sans-serif" font-size="11.5" font-weight="600" fill="#a5a5a5" text-anchor="middle">K</text><rect x="730" y="382" width="20" height="20" rx="5" ry="5" fill="#323232" stroke="#3d3d3d" stroke-width="1"/><text x="740" y="396.025" font-family="-apple-system, BlinkMacSystemFont, 'Segoe UI', Roboto, Inter, 'Helvetica Neue', Arial, sans-serif" font-size="11.5" font-weight="600" fill="#a5a5a5" text-anchor="middle">⌘</text><text x="722" y="396.5" font-family="-apple-system, BlinkMacSystemFont, 'Segoe UI', Roboto, Inter, 'Helvetica Neue', Arial, sans-serif" font-size="13" font-weight="400" fill="#a5a5a5" text-anchor="end">Actions</text><line x1="660.405" y1="383" x2="660.405" y2="401" stroke="#303030" stroke-width="1"/><rect x="628.405" y="382" width="20" height="20" rx="5" ry="5" fill="#323232" stroke="#3d3d3d" stroke-width="1"/><text x="638.405" y="396.025" font-family="-apple-system, BlinkMacSystemFont, 'Segoe UI', Roboto, Inter, 'Helvetica Neue', Arial, sans-serif" font-size="11.5" font-weight="600" fill="#a5a5a5" text-anchor="middle">↵</text><text x="620.405" y="396.5" font-family="-apple-system, BlinkMacSystemFont, 'Segoe UI', Roboto, Inter, 'Helvetica Neue', Arial, sans-serif" font-size="13" font-weight="400" fill="#a5a5a5" text-anchor="end">Open</text>
</svg>
