<svg xmlns="http://www.w3.org/2000/svg" width="836" height="416" viewBox="0 0 836 416" role="img">
  <defs>
    <filter id="win-shadow" x="-20%" y="-20%" width="140%" height="140%">
      <feDropShadow dx="0" dy="14" stdDeviation="18" flood-color="#000000" flood-opacity="0.45"/>
    </filter>
    <linearGradient id="hero-bg" x1="0" y1="0" x2="1" y2="1">
      <stop offset="0" stop-color="#8B45FF"/>
      <stop offset="0.55" stop-color="#6236FF"/>
      <stop offset="1" stop-color="#2F6BFF"/>
    </linearGradient>
    <radialGradient id="hero-glow" cx="0.5" cy="0.32" r="0.72">
      <stop offset="0" stop-color="#ffffff" stop-opacity="0.22"/>
      <stop offset="1" stop-color="#ffffff" stop-opacity="0"/>
    </radialGradient>
  </defs>
<g filter="url(#win-shadow)"><rect x="28" y="28" width="780" height="360" rx="10" ry="10" fill="#1b1b1b" stroke="#303030" stroke-width="1"/></g>
<g transform="translate(45 44) scale(0.7500)" fill="none" stroke="#a5a5a5" stroke-width="1.5" stroke-linecap="round" stroke-linejoin="round"><path d="M14 3H6a2 2 0 0 0-2 2v14a2 2 0 0 0 2 2h12a2 2 0 0 0 2-2V9z" /> <path d="M14 3v6h6" /> <line x1="8" y1="13" x2="16" y2="13" /> <line x1="8" y1="17" x2="13" y2="17" /></g>
<text x="74" y="58" font-family="-apple-system, BlinkMacSystemFont, 'Segoe UI', Roboto, Inter, 'Helvetica Neue', Arial, sans-serif" font-size="14" font-weight="600" fill="#f2f2f2">Release checklist</text>
<text x="790" y="58" font-family="-apple-system, BlinkMacSystemFont, 'Segoe UI', Roboto, Inter, 'Helvetica Neue', Arial, sans-serif" font-size="12.5" font-weight="400" fill="#7d7d7d" text-anchor="end">Edited just now</text>
<line x1="29" y1="78" x2="807" y2="78" stroke="#303030" stroke-width="1"/>
<text x="52" y="106" font-family="-apple-system, BlinkMacSystemFont, 'Segoe UI', Roboto, Inter, 'Helvetica Neue', Arial, sans-serif" font-size="17" font-weight="600" fill="#f2f2f2">Release checklist</text>
<text x="52" y="136" font-family="-apple-system, BlinkMacSystemFont, 'Segoe UI', Roboto, Inter, 'Helvetica Neue', Arial, sans-serif" font-size="13.5" font-weight="400" fill="#a5a5a5">Everything that has to happen before tagging a build, in order.</text>
<circle cx="56" cy="163" r="2.5" fill="#7d7d7d"/>
<text x="68" y="167" font-family="-apple-system, BlinkMacSystemFont, 'Segoe UI', Roboto, Inter, 'Helvetica Neue', Arial, sans-serif" font-size="13.5" font-weight="400" fill="#a5a5a5">Run the QA checklist on macOS and Linux</text>
<circle cx="56" cy="188" r="2.5" fill="#7d7d7d"/>
<text x="68" y="192" font-family="-apple-system, BlinkMacSystemFont, 'Segoe UI', Roboto, Inter, 'Helvetica Neue', Arial, sans-serif" font-size="13.5" font-weight="400" fill="#a5a5a5">Regenerate the icon set from icon.svg</text>
<circle cx="56" cy="213" r="2.5" fill="#7d7d7d"/>
<text x="68" y="217" font-family="-apple-system, BlinkMacSystemFont, 'Segoe UI', Roboto, Inter, 'Helvetica Neue', Arial, sans-serif" font-size="13.5" font-weight="400" fill="#a5a5a5">Bump the version in package.json</text>
<rect x="52" y="235" width="732" height="60" rx="8" ry="8" fill="#222222" stroke="#303030" stroke-width="1"/>
<text x="66" y="253" font-family="ui-monospace, SFMono-Regular, Menlo, Consolas, 'Liberation Mono', monospace" font-size="12.5" font-weight="400" fill="#a5a5a5">git tag v0.2.0</text>
<text x="66" y="273" font-family="ui-monospace, SFMono-Regular, Menlo, Consolas, 'Liberation Mono', monospace" font-size="12.5" font-weight="400" fill="#a5a5a5">git push origin v0.2.0</text>
</svg>
