<svg xmlns="http://www.w3.org/2000/svg" width="1036" height="676" viewBox="0 0 1036 676" role="img">
  <defs>
    <filter id="win-shadow" x="-20%" y="-20%" width="140%" height="140%">
      <feDropShadow dx="0" dy="14" stdDeviation="18" flood-color="#000000" flood-opacity="0.45"/>
    </filter>
    <linearGradient id="hero-bg" x1="0" y1="0" x2="1" y2="1">
      <stop offset="0" stop-color="#8B45FF"/>
      <stop offset="0.55" stop-color="#6236FF"/>
      <stop offset="1" stop-color="#2F6BFF"/>
    </linearGradient>
    <radialGradient id="hero-glow" cx="0.5" cy="0.32" r="0.72">
      <stop offset="0" stop-color="#ffffff" stop-opacity="0.22"/>
      <stop offset="1" stop-color="#ffffff" stop-opacity="0"/>
    </radialGradient>
  </defs>
<g filter="url(#win-shadow)"><rect x="28" y="28" width="980" height="620" rx="10" ry="10" fill="#1b1b1b" stroke="#303030" stroke-width="1"/></g>
<rect x="29" y="29" width="230" height="618" fill="#222222"/>
<path d="M29 638 a10 10 0 0 0 10 10 h220 v-11 z" fill="#222222"/>
<line x1="258" y1="29" x2="258" y2="647" stroke="#303030" stroke-width="1"/>
<rect x="40" y="42" width="206" height="30" rx="7" ry="7" fill="#1b1b1b" stroke="#303030" stroke-width="1"/>
<g transform="translate(50 50)" fill="none" stroke="#7d7d7d" stroke-width="1.8" stroke-linecap="round"><circle cx="7.5" cy="7.5" r="5.8"/><line x1="11.8" y1="11.8" x2="16" y2="16"/></g>
<text x="74" y="62" font-family="-apple-system, BlinkMacSystemFont, 'Segoe UI', Roboto, Inter, 'Helvetica Neue', Arial, sans-serif" font-size="12.5" font-weight="400" fill="#7d7d7d">Search settings…</text>
<clipPath id="rail"><rect x="29" y="80" width="229" height="567"/></clipPath>
<g clip-path="url(#rail)">
<text x="48" y="-102" font-family="-apple-system, BlinkMacSystemFont, 'Segoe UI', Roboto, Inter, 'Helvetica Neue', Arial, sans-serif" font-size="11" font-weight="600" fill="#7d7d7d">Settings</text>
<g transform="translate(48 -84) scale(0.7500)" fill="none" stroke="#a5a5a5" stroke-width="1.5" stroke-linecap="round" stroke-linejoin="round"><circle cx="12" cy="12" r="3" /> <path d="M19.4 15a1.65 1.65 0 0 0 .33 1.82l.06.06a2 2 0 1 1-2.83 2.83l-.06-.06a1.65 1.65 0 0 0-1.82-.33 1.65 1.65 0 0 0-1 1.51V21a2 2 0 0 1-4 0v-.09A1.65 1.65 0 0 0 9 19.4a1.65 1.65 0 0 0-1.82.33l-.06.06a2 2 0 1 1-2.83-2.83l.06-.06a1.65 1.65 0 0 0 .33-1.82 1.65 1.65 0 0 0-1.51-1H3a2 2 0 0 1 0-4h.09A1.65 1.65 0 0 0 4.6 9a1.65 1.65 0 0 0-.33-1.82l-.06-.06a2 2 0 1 1 2.83-2.83l.06.06a1.65 1.65 0 0 0 1.82.33H9a1.65 1.65 0 0 0 1-1.51V3a2 2 0 0 1 4 0v.09a1.65 1.65 0 0 0 1 1.51 1.65 1.65 0 0 0 1.82-.33l.06-.06a2 2 0 1 1 2.83 2.83l-.06.06a1.65 1.65 0 0 0-.33 1.82V9a1.65 1.65 0 0 0 1.51 1H21a2 2 0 0 1 0 4h-.09a1.65 1.65 0 0 0-1.51 1z" /></g>
<text x="74" y="-70" font-family="-apple-system, BlinkMacSystemFont, 'Segoe UI', Roboto, Inter, 'Helvetica Neue', Arial, sans-serif" font-size="13" font-weight="500" fill="#f2f2f2">General</text>
<g transform="translate(48 -52) scale(0.7500)" fill="none" stroke="#a5a5a5" stroke-width="1.5" stroke-linecap="round" stroke-linejoin="round"><path d="M7 4v14M3 14l4 4 4-4" /> <path d="M17 20V6m4 4-4-4-4 4" /></g>
<text x="74" y="-38" font-family="-apple-system, BlinkMacSystemFont, 'Segoe UI', Roboto, Inter, 'Helvetica Neue', Arial, sans-serif" font-size="13" font-weight="500" fill="#f2f2f2">Import / Export</text>
<g transform="translate(48 -20) scale(0.7500)" fill="none" stroke="#a5a5a5" stroke-width="1.5" stroke-linecap="round" stroke-linejoin="round"><circle cx="12" cy="12" r="9" /> <line x1="22" y1="12" x2="18" y2="12" /> <line x1="6" y1="12" x2="2" y2="12" /> <line x1="12" y1="6" x2="12" y2="2" /> <line x1="12" y1="22" x2="12" y2="18" /></g>
<text x="74" y="-6" font-family="-apple-system, BlinkMacSystemFont, 'Segoe UI', Roboto, Inter, 'Helvetica Neue', Arial, sans-serif" font-size="13" font-weight="500" fill="#f2f2f2">Advanced</text>
<text x="48" y="28" font-family="-apple-system, BlinkMacSystemFont, 'Segoe UI', Roboto, Inter, 'Helvetica Neue', Arial, sans-serif" font-size="11" font-weight="600" fill="#7d7d7d">Extensions</text>
<text x="238" y="29" font-family="-apple-system, BlinkMacSystemFont, 'Segoe UI', Roboto, Inter, 'Helvetica Neue', Arial, sans-serif" font-size="15" font-weight="500" fill="#7d7d7d" text-anchor="end">+</text>
<g transform="translate(48 46) scale(0.7500)" fill="none" stroke="#a5a5a5" stroke-width="1.5" stroke-linecap="round" stroke-linejoin="round"><rect x="2" y="4" width="20" height="16" rx="2" /> <line x1="2" y1="9" x2="22" y2="9" /> <line x1="5.5" y1="6.5" x2="5.5" y2="6.5" /> <line x1="8.5" y1="6.5" x2="8.5" y2="6.5" /></g>
<text x="74" y="60" font-family="-apple-system, BlinkMacSystemFont, 'Segoe UI', Roboto, Inter, 'Helvetica Neue', Arial, sans-serif" font-size="13" font-weight="500" fill="#f2f2f2">Applications</text>
<g transform="translate(48 78) scale(0.7500)" fill="none" stroke="#a5a5a5" stroke-width="1.5" stroke-linecap="round" stroke-linejoin="round"><path d="M11 4l1.3 3.7L16 9l-3.7 1.3L11 14l-1.3-3.7L6 9l3.7-1.3L11 4z" /> <path d="M18.5 14l.8 2.2 2.2.8-2.2.8-.8 2.2-.8-2.2-2.2-.8 2.2-.8.8-2.2z" /></g>
<text x="74" y="92" font-family="-apple-system, BlinkMacSystemFont, 'Segoe UI', Roboto, Inter, 'Helvetica Neue', Arial, sans-serif" font-size="13" font-weight="500" fill="#f2f2f2">AI</text>
<g transform="translate(48 110) scale(0.7500)" fill="none" stroke="#a5a5a5" stroke-width="1.5" stroke-linecap="round" stroke-linejoin="round"><rect x="4" y="2" width="16" height="20" rx="2" /> <line x1="8" y1="6" x2="16" y2="6" /> <line x1="8" y1="11" x2="8" y2="11" /> <line x1="12" y1="11" x2="12" y2="11" /> <line x1="16" y1="11" x2="16" y2="11" /> <line x1="8" y1="15" x2="8" y2="15" /> <line x1="12" y1="15" x2="12" y2="15" /> <line x1="16" y1="15" x2="16" y2="18" /> <line x1="8" y1="18" x2="12" y2="18" /></g>
<text x="74" y="124" font-family="-apple-system, BlinkMacSystemFont, 'Segoe UI', Roboto, Inter, 'Helvetica Neue', Arial, sans-serif" font-size="13" font-weight="500" fill="#f2f2f2">Calculator</text>
<g transform="translate(48 142) scale(0.7500)" fill="none" stroke="#a5a5a5" stroke-width="1.5" stroke-linecap="round" stroke-linejoin="round"><path d="M16 4h2a2 2 0 0 1 2 2v14a2 2 0 0 1-2 2H6a2 2 0 0 1-2-2V6a2 2 0 0 1 2-2h2" /> <rect x="8" y="2" width="8" height="4" rx="1" /></g>
<text x="74" y="156" font-family="-apple-system, BlinkMacSystemFont, 'Segoe UI', Roboto, Inter, 'Helvetica Neue', Arial, sans-serif" font-size="13" font-weight="500" fill="#f2f2f2">Clipboard History</text>
<g transform="translate(48 174) scale(0.7500)" fill="none" stroke="#a5a5a5" stroke-width="1.5" stroke-linecap="round" stroke-linejoin="round"><path d="m9 18-6-6 6-6M15 6l6 6-6 6" /></g>
<text x="74" y="188" font-family="-apple-system, BlinkMacSystemFont, 'Segoe UI', Roboto, Inter, 'Helvetica Neue', Arial, sans-serif" font-size="13" font-weight="500" fill="#f2f2f2">Developer</text>
<g transform="translate(48 206) scale(0.7500)" fill="none" stroke="#a5a5a5" stroke-width="1.5" stroke-linecap="round" stroke-linejoin="round"><circle cx="12" cy="12" r="9" /> <path d="M8.5 14.5a4.5 4.5 0 0 0 7 0" /> <line x1="9.3" y1="9.8" x2="9.31" y2="9.8" /> <line x1="14.7" y1="9.8" x2="14.71" y2="9.8" /></g>
<text x="74" y="220" font-family="-apple-system, BlinkMacSystemFont, 'Segoe UI', Roboto, Inter, 'Helvetica Neue', Arial, sans-serif" font-size="13" font-weight="500" fill="#f2f2f2">Emoji &amp; Symbols</text>
<g transform="translate(48 238) scale(0.7500)" fill="none" stroke="#a5a5a5" stroke-width="1.5" stroke-linecap="round" stroke-linejoin="round"><circle cx="11" cy="11" r="7" /> <line x1="16.2" y1="16.2" x2="21" y2="21" /></g>
<text x="74" y="252" font-family="-apple-system, BlinkMacSystemFont, 'Segoe UI', Roboto, Inter, 'Helvetica Neue', Arial, sans-serif" font-size="13" font-weight="500" fill="#f2f2f2">File Search</text>
<g transform="translate(48 270) scale(0.7500)" fill="none" stroke="#a5a5a5" stroke-width="1.5" stroke-linecap="round" stroke-linejoin="round"><rect x="2.5" y="4" width="19" height="13" rx="2" /> <line x1="8" y1="21" x2="16" y2="21" /> <line x1="12" y1="17" x2="12" y2="21" /></g>
<text x="74" y="284" font-family="-apple-system, BlinkMacSystemFont, 'Segoe UI', Roboto, Inter, 'Helvetica Neue', Arial, sans-serif" font-size="13" font-weight="500" fill="#f2f2f2">Menu Bar Search</text>
<g transform="translate(48 302) scale(0.7500)" fill="none" stroke="#a5a5a5" stroke-width="1.5" stroke-linecap="round" stroke-linejoin="round"><path d="M14 3H6a2 2 0 0 0-2 2v14a2 2 0 0 0 2 2h12a2 2 0 0 0 2-2V9z" /> <path d="M14 3v6h6" /> <line x1="8" y1="13" x2="16" y2="13" /> <line x1="8" y1="17" x2="13" y2="17" /></g>
<text x="74" y="316" font-family="-apple-system, BlinkMacSystemFont, 'Segoe UI', Roboto, Inter, 'Helvetica Neue', Arial, sans-serif" font-size="13" font-weight="500" fill="#f2f2f2">Notes</text>
<g transform="translate(48 334) scale(0.7500)" fill="none" stroke="#a5a5a5" stroke-width="1.5" stroke-linecap="round" stroke-linejoin="round"><path d="M10 13a5 5 0 0 0 7.5.5l3-3a5 5 0 0 0-7-7l-1.7 1.7" /> <path d="M14 11a5 5 0 0 0-7.5-.5l-3 3a5 5 0 0 0 7 7l1.7-1.7" /></g>
<text x="74" y="348" font-family="-apple-system, BlinkMacSystemFont, 'Segoe UI', Roboto, Inter, 'Helvetica Neue', Arial, sans-serif" font-size="13" font-weight="500" fill="#f2f2f2">Quicklinks</text>
<g transform="translate(48 366) scale(0.7500)" fill="none" stroke="#a5a5a5" stroke-width="1.5" stroke-linecap="round" stroke-linejoin="round"><path d="M23 19a2 2 0 0 1-2 2H3a2 2 0 0 1-2-2V8a2 2 0 0 1 2-2h4l2-3h6l2 3h4a2 2 0 0 1 2 2z" /> <circle cx="12" cy="13" r="4" /></g>
<text x="74" y="380" font-family="-apple-system, BlinkMacSystemFont, 'Segoe UI', Roboto, Inter, 'Helvetica Neue', Arial, sans-serif" font-size="13" font-weight="500" fill="#f2f2f2">Screenshots</text>
<g transform="translate(48 398) scale(0.7500)" fill="none" stroke="#a5a5a5" stroke-width="1.5" stroke-linecap="round" stroke-linejoin="round"><path d="m9 18-6-6 6-6M15 6l6 6-6 6" /></g>
<text x="74" y="412" font-family="-apple-system, BlinkMacSystemFont, 'Segoe UI', Roboto, Inter, 'Helvetica Neue', Arial, sans-serif" font-size="13" font-weight="500" fill="#f2f2f2">Script Commands</text>
<g transform="translate(48 430) scale(0.7500)" fill="none" stroke="#a5a5a5" stroke-width="1.5" stroke-linecap="round" stroke-linejoin="round"><circle cx="6" cy="6" r="3" /> <circle cx="6" cy="18" r="3" /> <line x1="20" y1="4" x2="8.1" y2="15.9" /> <line x1="14.5" y1="14.5" x2="20" y2="20" /> <line x1="8.1" y1="8.1" x2="12" y2="12" /></g>
<text x="74" y="444" font-family="-apple-system, BlinkMacSystemFont, 'Segoe UI', Roboto, Inter, 'Helvetica Neue', Arial, sans-serif" font-size="13" font-weight="500" fill="#f2f2f2">Snippets</text>
<g transform="translate(48 462) scale(0.7500)" fill="none" stroke="#a5a5a5" stroke-width="1.5" stroke-linecap="round" stroke-linejoin="round"><rect x="2" y="4" width="20" height="16" rx="2" /> <line x1="2" y1="9" x2="22" y2="9" /> <line x1="5.5" y1="6.5" x2="5.5" y2="6.5" /> <line x1="8.5" y1="6.5" x2="8.5" y2="6.5" /></g>
<text x="74" y="476" font-family="-apple-system, BlinkMacSystemFont, 'Segoe UI', Roboto, Inter, 'Helvetica Neue', Arial, sans-serif" font-size="13" font-weight="500" fill="#f2f2f2">Store</text>
<g transform="translate(48 494) scale(0.7500)" fill="none" stroke="#a5a5a5" stroke-width="1.5" stroke-linecap="round" stroke-linejoin="round"><polyline points="5 9 2 12 5 15" /> <polyline points="9 5 12 2 15 5" /> <polyline points="15 19 12 22 9 19" /> <polyline points="19 9 22 12 19 15" /> <line x1="2" y1="12" x2="22" y2="12" /> <line x1="12" y1="2" x2="12" y2="22" /></g>
<text x="74" y="508" font-family="-apple-system, BlinkMacSystemFont, 'Segoe UI', Roboto, Inter, 'Helvetica Neue', Arial, sans-serif" font-size="13" font-weight="500" fill="#f2f2f2">Switch Windows</text>
<g transform="translate(48 526) scale(0.7500)" fill="none" stroke="#a5a5a5" stroke-width="1.5" stroke-linecap="round" stroke-linejoin="round"><line x1="12" y1="3" x2="12" y2="12" /> <path d="M6.3 6.3a8 8 0 1 0 11.4 0" /></g>
<text x="74" y="540" font-family="-apple-system, BlinkMacSystemFont, 'Segoe UI', Roboto, Inter, 'Helvetica Neue', Arial, sans-serif" font-size="13" font-weight="500" fill="#f2f2f2">System Commands</text>
<g transform="translate(48 558) scale(0.7500)" fill="none" stroke="#a5a5a5" stroke-width="1.5" stroke-linecap="round" stroke-linejoin="round"><path d="M5 8h9M9 4v2m0 0c0 4-2 8-6 10m4-4c1.5 1.5 3.5 2.5 5 3" /> <path d="m14 21 4-9 4 9M15.5 18h5" /></g>
<text x="74" y="572" font-family="-apple-system, BlinkMacSystemFont, 'Segoe UI', Roboto, Inter, 'Helvetica Neue', Arial, sans-serif" font-size="13" font-weight="500" fill="#f2f2f2">Translate</text>
<rect x="38" y="584" width="210" height="30" rx="7" ry="7" fill="#007aff"/>
<g transform="translate(48 590) scale(0.7500)" fill="none" stroke="#a5a5a5" stroke-width="1.5" stroke-linecap="round" stroke-linejoin="round"><rect x="2" y="4" width="20" height="16" rx="2" /> <circle cx="12" cy="12" r="2" fill="currentColor" stroke="none" /></g>
<text x="74" y="604" font-family="-apple-system, BlinkMacSystemFont, 'Segoe UI', Roboto, Inter, 'Helvetica Neue', Arial, sans-serif" font-size="13" font-weight="500" fill="#ffffff">Window Management</text>
</g>
<text x="290" y="70" font-family="-apple-system, BlinkMacSystemFont, 'Segoe UI', Roboto, Inter, 'Helvetica Neue', Arial, sans-serif" font-size="18" font-weight="600" fill="#f2f2f2">Window Management</text>
<rect x="290" y="104" width="686" height="200" rx="8" ry="8" fill="#222222" stroke="#303030" stroke-width="1"/>
<text x="304" y="124" font-family="-apple-system, BlinkMacSystemFont, 'Segoe UI', Roboto, Inter, 'Helvetica Neue', Arial, sans-serif" font-size="11.5" font-weight="600" fill="#7d7d7d">Command</text>
<text x="962" y="124" font-family="-apple-system, BlinkMacSystemFont, 'Segoe UI', Roboto, Inter, 'Helvetica Neue', Arial, sans-serif" font-size="11.5" font-weight="600" fill="#7d7d7d" text-anchor="end">Hotkey</text>
<rect x="294" y="134" width="678" height="32" rx="6" ry="6" fill="#007aff"/>
<g transform="translate(305 142) scale(0.7500)" fill="none" stroke="#a5a5a5" stroke-width="1.5" stroke-linecap="round" stroke-linejoin="round"><rect x="2" y="4" width="20" height="16" rx="2" fill="none"/><rect x="2" y="4" width="10" height="16" rx="1" fill="currentColor" stroke="none"/></g>
<text x="334" y="155" font-family="-apple-system, BlinkMacSystemFont, 'Segoe UI', Roboto, Inter, 'Helvetica Neue', Arial, sans-serif" font-size="13" font-weight="500" fill="#ffffff">Left Half</text>
<text x="962" y="155" font-family="-apple-system, BlinkMacSystemFont, 'Segoe UI', Roboto, Inter, 'Helvetica Neue', Arial, sans-serif" font-size="12.5" font-weight="400" fill="#ffffff" text-anchor="end">⌃⌥ ←</text>
<g transform="translate(305 176) scale(0.7500)" fill="none" stroke="#a5a5a5" stroke-width="1.5" stroke-linecap="round" stroke-linejoin="round"><rect x="2" y="4" width="20" height="16" rx="2" fill="none"/><rect x="12" y="4" width="10" height="16" rx="1" fill="currentColor" stroke="none"/></g>
<text x="334" y="189" font-family="-apple-system, BlinkMacSystemFont, 'Segoe UI', Roboto, Inter, 'Helvetica Neue', Arial, sans-serif" font-size="13" font-weight="500" fill="#f2f2f2">Right Half</text>
<text x="962" y="189" font-family="-apple-system, BlinkMacSystemFont, 'Segoe UI', Roboto, Inter, 'Helvetica Neue', Arial, sans-serif" font-size="12.5" font-weight="400" fill="#7d7d7d" text-anchor="end">⌃⌥ →</text>
<g transform="translate(305 210) scale(0.7500)" fill="none" stroke="#a5a5a5" stroke-width="1.5" stroke-linecap="round" stroke-linejoin="round"><rect x="2" y="4" width="20" height="16" rx="2" fill="none"/><rect x="3" y="5" width="18" height="14" rx="1" fill="currentColor" stroke="none"/></g>
<text x="334" y="223" font-family="-apple-system, BlinkMacSystemFont, 'Segoe UI', Roboto, Inter, 'Helvetica Neue', Arial, sans-serif" font-size="13" font-weight="500" fill="#f2f2f2">Maximize</text>
<text x="962" y="223" font-family="-apple-system, BlinkMacSystemFont, 'Segoe UI', Roboto, Inter, 'Helvetica Neue', Arial, sans-serif" font-size="12.5" font-weight="400" fill="#7d7d7d" text-anchor="end">⌃⌥ ↵</text>
<g transform="translate(305 244) scale(0.7500)" fill="none" stroke="#a5a5a5" stroke-width="1.5" stroke-linecap="round" stroke-linejoin="round"><rect x="2" y="4" width="20" height="16" rx="2" fill="none"/><rect x="4" y="6" width="16" height="12" rx="1" fill="currentColor" stroke="none"/></g>
<text x="334" y="257" font-family="-apple-system, BlinkMacSystemFont, 'Segoe UI', Roboto, Inter, 'Helvetica Neue', Arial, sans-serif" font-size="13" font-weight="500" fill="#f2f2f2">Almost Maximize</text>
<text x="962" y="257" font-family="-apple-system, BlinkMacSystemFont, 'Segoe UI', Roboto, Inter, 'Helvetica Neue', Arial, sans-serif" font-size="12.5" font-weight="400" fill="#7d7d7d" text-anchor="end">Record Hotkey</text>
<g transform="translate(305 278) scale(0.7500)" fill="none" stroke="#a5a5a5" stroke-width="1.5" stroke-linecap="round" stroke-linejoin="round"><rect x="2" y="4" width="20" height="16" rx="2" /> <circle cx="12" cy="12" r="2" fill="currentColor" stroke="none" /></g>
<text x="334" y="291" font-family="-apple-system, BlinkMacSystemFont, 'Segoe UI', Roboto, Inter, 'Helvetica Neue', Arial, sans-serif" font-size="13" font-weight="500" fill="#f2f2f2">Center</text>
<text x="962" y="291" font-family="-apple-system, BlinkMacSystemFont, 'Segoe UI', Roboto, Inter, 'Helvetica Neue', Arial, sans-serif" font-size="12.5" font-weight="400" fill="#7d7d7d" text-anchor="end">Record Hotkey</text>
</svg>
